<svg xmlns="http://www.w3.org/2000/svg" viewBox="0 0 512 512">
  <defs>
    <linearGradient id="bg" x1="0" y1="0" x2="1" y2="1">
      <stop offset="0" stop-color="#065f46"/>
      <stop offset="1" stop-color="#053d2c"/>
    </linearGradient>
  </defs>
  <rect width="512" height="512" rx="116" fill="url(#bg)"/>
  <path transform="translate(80 160) scale(8)" fill="#ffffff" fill-rule="evenodd" clip-rule="evenodd" d="M0 12C0 5.373 5.285 0 11.805 0h20.39C38.715 0 44 5.373 44 12s-5.285 12-11.805 12h-20.39C5.285 24 0 18.627 0 12m20.39 0a8.83 8.83 0 0 0-1.447-4.849 8.6 8.6 0 0 0-3.853-3.214 8.46 8.46 0 0 0-4.96-.497 8.54 8.54 0 0 0-4.396 2.39 8.77 8.77 0 0 0-2.35 4.468 8.86 8.86 0 0 0 .489 5.043 8.7 8.7 0 0 0 3.162 3.916 8.5 8.5 0 0 0 4.77 1.471V12zm18.944 4.849A8.83 8.83 0 0 0 40.78 12h-8.586V3.273a8.5 8.5 0 0 0-4.77 1.47 8.7 8.7 0 0 0-3.162 3.917 8.86 8.86 0 0 0-.488 5.043 8.77 8.77 0 0 0 2.35 4.468 8.54 8.54 0 0 0 4.395 2.389 8.46 8.46 0 0 0 4.96-.497 8.6 8.6 0 0 0 3.854-3.214z"/>
</svg>
