<?xml version="1.0" standalone="no"?>
<!DOCTYPE svg PUBLIC "-//W3C//DTD SVG 1.1//EN" "http://www.w3.org/Graphics/SVG/1.1/DTD/svg11.dtd">
<svg xmlns="http://www.w3.org/2000/svg" width="426" height="44" viewBox="0 0 426 44" fill="none">
<path fill-rule="evenodd" clip-rule="evenodd" d="M0 22C0 9.84974 9.84973 0 22 0H60C72.1503 0 82 9.84974 82 22C82 34.1503 72.1503 44 60 44H22C9.84973 44 0 34.1503 0 22ZM38 22C38 18.8355 37.0616 15.7421 35.3035 13.1109C33.5454 10.4797 31.0465 8.42893 28.1229 7.21793C25.1993 6.00693 21.9822 5.69007 18.8785 6.30743C15.7749 6.9248 12.9239 8.44865 10.6863 10.6863C8.44864 12.9239 6.9248 15.7749 6.30743 18.8786C5.69006 21.9823 6.00693 25.1993 7.21793 28.1229C8.42892 31.0466 10.4797 33.5454 13.1109 35.3035C15.7421 37.0616 18.8355 38 22 38V22H38ZM73.3035 30.8891C75.0616 28.2579 76 25.1645 76 22H60V6C56.8355 6 53.7421 6.93839 51.1109 8.69649C48.4797 10.4546 46.4289 12.9534 45.2179 15.8771C44.0069 18.8007 43.6901 22.0177 44.3074 25.1214C44.9248 28.2251 46.4486 31.0761 48.6863 33.3137C50.9239 35.5513 53.7749 37.0752 56.8786 37.6926C59.9822 38.3099 63.1993 37.9931 66.1229 36.7821C69.0466 35.5711 71.5454 33.5203 73.3035 30.8891Z" fill="#020617"/>
<path d="M305.229 6.71997C311.749 6.71997 316.229 10.24 317.469 16.44H312.629C311.669 12.88 308.949 10.88 305.109 10.88C300.149 10.88 296.549 14.52 296.549 21.64C296.549 28.68 299.949 32.6 305.069 32.6C308.509 32.6 312.829 31.08 312.829 25.92V25.36H305.429V21.08H317.549V36.24H313.549L313.389 32.76C311.669 35.32 308.509 36.76 304.509 36.76C296.269 36.76 291.309 30.76 291.309 21.64C291.309 12.64 296.589 6.71997 305.229 6.71997Z" fill="#020617"/>
<path d="M402.473 17.72V7.23999H397.713V36.24H402.473V24.8C402.473 20.92 403.793 18.12 407.473 18.12C411.153 18.12 411.553 20.96 411.553 23.88V36.24H416.313V22.72C416.313 17.6 414.193 14.24 408.993 14.24C405.953 14.24 403.713 15.48 402.473 17.72Z" fill="#020617"/>
<path d="M419.78 36.2399H425.22V30.7999H419.78V36.2399Z" fill="#020617"/>
<path d="M385.999 14.7199V9.03992H390.759V14.7199H395.079V18.1599H390.759V29.8799C390.759 32.0799 391.279 32.5999 393.319 32.5999H395.039V36.2399H391.519C386.919 36.2399 385.999 34.9999 385.999 30.5999V18.1599H382.799V17.8238L377.904 36.24H373.384L369.144 20.32L364.904 36.24H360.384L354.664 14.72H359.824L362.984 30L366.664 14.72H371.584L375.304 30L378.464 14.72L385.999 14.7199Z" fill="#020617"/>
<path fill-rule="evenodd" clip-rule="evenodd" d="M343.833 14.24C349.073 14.24 354.433 17.76 354.433 25.52C354.433 33.32 349.073 36.76 343.833 36.76C338.593 36.76 333.233 33.32 333.233 25.52C333.233 17.76 338.593 14.24 343.833 14.24ZM338.153 25.52C338.153 30.48 340.793 32.88 343.833 32.88C346.873 32.88 349.513 30.48 349.513 25.52C349.513 20.56 346.873 18.12 343.833 18.12C340.793 18.12 338.153 20.56 338.153 25.52Z" fill="#020617"/>
<path d="M333.336 19.5599V14.7599C332.976 14.7199 332.456 14.6799 332.096 14.6799C329.496 14.7199 327.416 16.1599 326.256 18.5599V14.7199H321.576V36.2399H326.336V24.9599C326.336 20.6399 328.056 19.4399 331.056 19.4399C331.776 19.4399 332.536 19.4799 333.336 19.5599Z" fill="#020617"/>
<path d="M281.552 22.08C280.712 17.32 276.632 14.24 271.912 14.24C265.472 14.24 261.352 19.12 261.352 25.52C261.352 31.92 265.472 36.76 271.712 36.76C276.312 36.76 280.752 33.92 281.712 28.88H277.072C276.432 31.76 274.152 32.8 271.792 32.8C268.992 32.8 266.272 30.6 266.272 25.48C266.272 20.4 268.912 18.2 271.912 18.2C274.512 18.2 276.472 19.8 276.912 22.08H281.552Z" fill="#020617"/>
<path d="M253.915 7.23999H258.675V12.04H253.915V7.23999Z" fill="#020617"/>
<path d="M253.915 14.72H258.675V36.24H253.915V14.72Z" fill="#020617"/>
<path d="M242.201 9.03992V14.7199H239.001V18.1599H242.201V30.5999C242.201 34.9999 243.121 36.2399 247.721 36.2399H251.241V32.5999H249.521C247.481 32.5999 246.961 32.0799 246.961 29.8799V18.1599H251.281V14.7199H246.961V9.03992H242.201Z" fill="#020617"/>
<path fill-rule="evenodd" clip-rule="evenodd" d="M226.628 36.76C221.948 36.76 218.668 34.24 218.668 30.32C218.668 24.92 225.308 23.64 233.148 22.8V22.4C233.148 18.72 231.068 17.6 228.668 17.6C226.268 17.6 224.468 18.88 224.348 21.48H219.668C219.988 17.12 223.628 14.08 228.828 14.08C233.988 14.08 238.028 16.44 237.908 23.32C237.908 23.7556 237.893 24.4581 237.877 25.2715L237.877 25.2839L237.877 25.285V25.2879C237.854 26.4126 237.828 27.7466 237.828 28.88C237.828 31.6 238.028 34.44 238.468 36.24H234.108C234.083 36.098 234.059 35.9656 234.036 35.8377L234.036 35.8346C233.91 35.1351 233.809 34.5696 233.708 33.32C232.308 35.68 229.828 36.76 226.628 36.76ZM233.268 27.76V26.12C226.468 26.76 223.708 27.76 223.708 30.2C223.708 32.08 225.268 33.2 227.668 33.2C231.188 33.2 233.268 31.44 233.268 27.76Z" fill="#020617"/>
<path d="M189.618 36.24V24.8C189.618 20.92 190.818 18.12 194.338 18.12C197.858 18.12 198.138 20.96 198.138 23.88V36.24H202.898V24.8C202.898 20.92 204.098 18.12 207.618 18.12C211.138 18.12 211.418 20.96 211.418 23.88V36.24H216.178V22.72C216.178 17.6 214.258 14.24 209.138 14.24C206.458 14.24 204.018 15.32 202.138 18.04C201.138 15.64 199.218 14.24 195.858 14.24C192.978 14.24 190.858 15.48 189.618 17.72V14.72H184.858V36.24H189.618Z" fill="#020617"/>
<path fill-rule="evenodd" clip-rule="evenodd" d="M175.963 17.6V14.72H180.723V34.08C180.723 37.56 179.843 40.08 178.123 41.68C176.403 43.28 173.843 44 170.483 44C165.763 44 162.043 42.12 161.283 37.4H166.003C166.443 39.44 167.723 40.24 170.603 40.24C172.723 40.24 174.083 39.64 174.883 38.68C175.683 37.76 175.963 36.44 175.963 35.04V32.52C174.683 34.64 172.443 35.88 169.563 35.88C164.443 35.88 160.203 31.76 160.203 25.04C160.203 18.32 164.443 14.24 169.563 14.24C172.443 14.24 174.683 15.48 175.963 17.6ZM176.163 25.04C176.163 20.24 173.683 18.04 170.603 18.04C167.403 18.04 165.163 20.72 165.163 25.04C165.163 29.48 167.403 32.12 170.603 32.12C173.683 32.12 176.163 29.88 176.163 25.04Z" fill="#020617"/>
<path fill-rule="evenodd" clip-rule="evenodd" d="M138.83 30.32C138.83 34.24 142.11 36.76 146.79 36.76C149.99 36.76 152.47 35.68 153.87 33.32C153.971 34.5697 154.073 35.1349 154.198 35.8345C154.221 35.9634 154.245 36.0968 154.27 36.24H158.63C158.19 34.44 157.99 31.6 157.99 28.88C157.99 27.7464 158.017 26.4122 158.039 25.2874L158.039 25.2861C158.056 24.4667 158.07 23.7582 158.07 23.32C158.19 16.44 154.15 14.08 148.99 14.08C143.79 14.08 140.15 17.12 139.83 21.48H144.51C144.63 18.88 146.43 17.6 148.83 17.6C151.23 17.6 153.31 18.72 153.31 22.4V22.8C145.47 23.64 138.83 24.92 138.83 30.32ZM153.43 26.12V27.76C153.43 31.44 151.35 33.2 147.83 33.2C145.43 33.2 143.87 32.08 143.87 30.2C143.87 27.76 146.63 26.76 153.43 26.12Z" fill="#020617"/>
<path d="M139.086 14.7599V19.5599C138.286 19.4799 137.526 19.4399 136.806 19.4399C133.806 19.4399 132.086 20.6399 132.086 24.9599V36.2399H127.326V14.7199H132.006V18.5599C133.166 16.1599 135.246 14.7199 137.846 14.6799C138.206 14.6799 138.726 14.7199 139.086 14.7599Z" fill="#020617"/>
<path fill-rule="evenodd" clip-rule="evenodd" d="M113.56 7.23999H104V36.24H109.08V25.28H113.64C120.48 25.28 125.88 23.68 125.88 16.36C125.88 8.23999 119.92 7.23999 113.56 7.23999ZM109.08 11.32H113.56C117.12 11.32 120.6 11.72 120.6 16.4C120.6 20.56 117.64 21.12 113.8 21.12H109.08V11.32Z" fill="#020617"/>
</svg>