<?xml version="1.0" standalone="no"?>
<!DOCTYPE svg PUBLIC "-//W3C//DTD SVG 1.1//EN" "http://www.w3.org/Graphics/SVG/1.1/DTD/svg11.dtd">
<svg xmlns="http://www.w3.org/2000/svg" width="246" height="132" viewBox="0 0 246 132" fill="none">
<rect width="246" height="132" rx="66" fill="white"/>
<path fill-rule="evenodd" clip-rule="evenodd" d="M0 66C0 29.5492 29.5492 0 66 0H180C216.451 0 246 29.5492 246 66C246 102.451 216.451 132 180 132H66C29.5492 132 0 102.451 0 66ZM114 66C114 56.5065 111.185 47.2262 105.911 39.3326C100.636 31.4391 93.1396 25.2868 84.3688 21.6538C75.5979 18.0208 65.9467 17.0702 56.6356 18.9223C47.3246 20.7744 38.7718 25.346 32.0588 32.0589C25.3459 38.7718 20.7744 47.3246 18.9223 56.6357C17.0702 65.9468 18.0208 75.5979 21.6538 84.3688C25.2868 93.1397 31.439 100.636 39.3326 105.911C47.2262 111.185 56.5065 114 66 114V66H114ZM219.911 92.6673C225.185 84.7738 228 75.4935 228 66H180V18C170.507 18 161.226 20.8152 153.333 26.0895C145.439 31.3638 139.287 38.8603 135.654 47.6312C132.021 56.402 131.07 66.0532 132.922 75.3643C134.774 84.6754 139.346 93.2282 146.059 99.9411C152.772 106.654 161.325 111.226 170.636 113.078C179.947 114.93 189.598 113.979 198.369 110.346C207.14 106.713 214.636 100.561 219.911 92.6673Z" fill="#020617"/>
</svg>